<?xml version="1.0" standalone="no"?>
<!DOCTYPE svg PUBLIC "-//W3C//DTD SVG 20010904//EN"
 "http://www.w3.org/TR/2001/REC-SVG-20010904/DTD/svg10.dtd">
<svg version="1.0" xmlns="http://www.w3.org/2000/svg"
 width="74.000000pt" height="74.000000pt" viewBox="0 0 74.000000 74.000000"
 preserveAspectRatio="xMidYMid meet">
<metadata>
Created by potrace 1.11, written by Peter Selinger 2001-2013
</metadata>
<g transform="translate(0.000000,74.000000) scale(0.100000,-0.100000)"
fill="#000000" stroke="none">
<path d="M229 631 c-16 -16 -29 -38 -30 -48 0 -10 -2 -26 -4 -35 -2 -10 1 -18
6 -18 5 0 9 -7 9 -16 0 -16 73 -127 113 -171 11 -13 16 -23 10 -23 -6 0 -26
19 -45 41 -64 80 -122 123 -152 114 -6 -2 -23 -6 -38 -9 -18 -4 -29 -16 -37
-37 -14 -42 -14 -45 6 -65 15 -14 15 -18 2 -28 -35 -26 -48 -57 -37 -87 17
-50 82 -70 144 -44 19 8 34 11 34 7 0 -4 4 -2 8 3 10 14 79 45 86 38 3 -3 -18
-17 -47 -32 -71 -36 -88 -53 -89 -91 -1 -38 22 -60 57 -54 16 3 27 -3 39 -21
36 -55 105 -13 101 60 -2 22 -5 52 -8 67 -4 19 -1 28 11 33 9 3 14 3 10 0 -8
-9 73 -85 84 -79 4 3 8 1 8 -4 0 -5 12 -8 28 -7 15 1 30 -3 34 -9 5 -8 13 -7
28 2 11 7 20 8 20 4 0 -5 20 -8 45 -8 25 1 45 5 45 9 0 4 6 7 13 6 38 -5 58 2
55 19 -2 9 -11 15 -19 14 -39 -10 -66 -15 -81 -16 -10 0 -18 -3 -18 -7 0 -4
-12 -6 -27 -4 -16 2 -48 6 -73 9 -44 6 -119 49 -127 72 -2 7 3 19 12 28 15 14
19 14 53 -1 84 -37 145 -54 173 -48 16 4 29 11 29 16 0 6 4 8 9 5 10 -7 21 15
27 56 4 21 -1 31 -25 49 -30 22 -30 22 -12 48 27 39 3 90 -50 104 -27 7 -91
-20 -116 -50 -52 -61 -95 -103 -106 -103 -8 0 20 40 44 60 22 19 83 120 90
148 15 66 -16 119 -74 129 -28 4 -39 0 -60 -22 l-25 -28 -27 27 c-34 34 -69
33 -106 -3z"/>
</g>
</svg>
