<svg width="460" height="173" viewBox="0 0 460 173" fill="none" xmlns="http://www.w3.org/2000/svg">
<path d="M-12.8915 53.6984C-8.24111 56.76 -3.47046 59.6291 1.40272 62.429C6.23056 65.2225 11.1156 67.9402 16.0637 70.5411C25.96 75.743 36.0337 80.6767 46.3027 85.2188C56.5657 89.8021 66.9728 94.0285 77.5297 97.8569L81.4863 99.3079L85.4548 100.677L89.4233 102.046L93.443 103.38L97.4627 104.714L101.494 105.966L105.526 107.218L109.569 108.388L113.613 109.558C114.943 109.959 116.331 110.285 117.668 110.645C120.387 111.373 123.105 112.1 125.836 112.745L129.948 113.757L132.004 114.263L134.066 114.728C136.803 115.331 139.533 115.977 142.321 116.546L150.599 118.2L158.907 119.648C160.307 119.892 161.667 120.087 163.067 120.331L167.232 120.973C170.038 121.419 172.764 121.77 175.542 122.086C186.614 123.303 197.759 123.691 208.78 123.012C219.846 122.34 230.731 120.677 241.384 118.057C252.03 115.478 262.438 111.984 272.521 107.855C282.644 103.774 292.486 99.0649 302.217 94.172C311.992 89.2856 321.667 84.133 331.618 79.3139C336.597 76.8838 341.654 74.549 346.778 72.3916C351.948 70.2408 357.236 68.2329 362.618 66.5324C368.046 64.8384 373.574 63.4106 379.31 62.4742C382.161 61.9617 385.033 61.6201 387.939 61.3673L390.09 61.2155C390.794 61.149 391.531 61.1713 392.281 61.1113C393.728 61.026 395.157 61.064 396.592 61.0609C402.294 61.0009 408.051 61.2006 413.744 61.5171C419.484 61.8401 425.187 62.4098 430.861 63.185C442.203 64.7765 453.426 67.1903 464.257 70.7224C469.693 72.5123 475.008 74.4946 480.133 76.8274C482.696 77.9938 485.247 79.2424 487.695 80.5601C490.189 81.8844 492.574 83.319 494.845 84.9049C492.46 83.4703 489.96 82.1872 487.403 80.9797C484.847 79.7722 482.272 78.688 479.64 77.6795C474.382 75.6215 469.032 73.8858 463.601 72.3902C458.163 70.9357 452.657 69.6391 447.109 68.6303C441.562 67.6215 435.978 66.8594 430.366 66.3027C424.753 65.7461 419.162 65.3605 413.541 65.1804C407.92 65.0003 402.315 65.0323 396.726 65.2763C395.33 65.327 393.934 65.3778 392.578 65.4762C391.227 65.5334 389.865 65.6729 388.502 65.8124C385.772 66.1325 383.081 66.5002 380.411 67.0389C375.033 68.0686 369.776 69.5355 364.621 71.2687C359.459 73.043 354.443 75.0901 349.449 77.3081C344.5 79.5327 339.579 81.8871 334.73 84.378C325.04 89.3185 315.398 94.5598 305.644 99.6172C295.89 104.674 285.888 109.528 275.555 113.789C265.221 118.049 254.466 121.703 243.382 124.429C232.304 127.114 220.896 128.87 209.37 129.518C197.845 130.165 186.201 129.705 174.739 128.306C171.876 127.936 169.02 127.525 166.169 127.072L161.918 126.376C160.519 126.132 159.068 125.923 157.674 125.639C154.88 125.111 152.041 124.576 149.248 124.048L140.851 122.251C138.07 121.64 135.3 120.948 132.479 120.29L130.377 119.777L128.327 119.23L124.181 118.129C121.411 117.437 118.665 116.58 115.952 115.811C114.576 115.403 113.194 115.036 111.869 114.594L107.792 113.335L103.715 112.077L99.6502 110.736L95.5851 109.395L91.5772 107.979L87.5693 106.562L83.5733 105.064L79.5772 103.565L75.6384 101.99C65.0953 97.7445 54.7416 93.1481 44.6225 88.2079C42.0715 86.9593 39.5718 85.6761 37.0721 84.393C34.5784 83.0687 32.0728 81.8266 29.5849 80.4612C24.6427 77.8192 19.7182 75.0538 14.9022 72.1782C5.41221 66.4054 -4.04231 60.386 -12.8915 53.6984Z" fill="white" fill-opacity="0.3"/>
</svg>
