<svg width="1107" height="244" viewBox="0 0 1107 244" fill="none" xmlns="http://www.w3.org/2000/svg">
<path d="M0 129.704C11 135.404 22.2 140.604 33.6 145.604C44.9 150.604 56.3 155.404 67.8 159.904C90.8 168.904 114.1 177.204 137.7 184.504C161.3 191.904 185.1 198.404 209.1 203.904L218.1 206.004L227.1 207.904L236.1 209.804L245.2 211.604L254.3 213.404L263.4 215.004L272.5 216.604L281.6 218.004L290.7 219.404C293.7 219.904 296.8 220.204 299.8 220.604C305.9 221.404 312 222.204 318.1 222.804L327.3 223.804L331.9 224.304L336.5 224.704C342.6 225.204 348.7 225.804 354.9 226.204L373.3 227.304L391.7 227.904C394.8 228.004 397.8 228.004 400.9 228.104L410.1 228.204C416.3 228.304 422.3 228.204 428.4 228.004C452.7 227.104 476.9 224.204 500.5 218.804C524.2 213.404 547.2 205.704 569.4 195.804C591.6 186.004 613 174.104 633.5 160.804C654.1 147.604 673.9 133.004 693.4 118.004C713 103.004 732.3 87.4037 752.3 72.5037C762.3 65.0037 772.5 57.7037 782.9 50.8037C793.4 43.9037 804.2 37.3037 815.3 31.4037C826.5 25.5037 838 20.2037 850.1 16.0037C856.1 13.8037 862.2 12.0037 868.4 10.4037L873 9.30374C874.5 8.90374 876.1 8.70374 877.7 8.30374C880.8 7.60374 883.9 7.20374 887 6.70374C899.3 4.60374 911.8 3.10374 924.2 1.90374C936.7 0.703737 949.2 0.103738 961.7 0.00373759C986.7 -0.0962624 1011.7 1.80374 1036.2 6.50374C1048.5 8.90374 1060.6 11.8037 1072.4 15.6037C1078.3 17.5037 1084.2 19.6037 1089.9 21.9037C1095.7 24.2037 1101.3 26.8037 1106.7 29.8037C1101.1 27.2037 1095.3 25.0037 1089.4 23.0037C1083.5 21.0037 1077.6 19.3037 1071.6 17.8037C1059.6 14.7037 1047.5 12.4037 1035.3 10.7037C1023.1 9.10374 1010.8 7.90374 998.5 7.40374C986.2 6.90374 973.9 7.00374 961.6 7.60374C949.3 8.20374 937.1 9.20374 924.9 10.7037C912.7 12.2037 900.6 14.2037 888.6 16.7037C885.6 17.3037 882.6 17.9037 879.7 18.6037C876.8 19.2037 873.9 20.0037 871 20.8037C865.2 22.5037 859.5 24.3037 853.9 26.5037C842.6 30.8037 831.7 36.1037 821.1 42.0037C810.5 48.0037 800.3 54.6037 790.2 61.6037C780.2 68.6037 770.3 75.9037 760.6 83.5037C741.2 98.6037 722 114.404 702.5 129.804C683 145.204 662.9 160.204 641.9 173.904C620.9 187.604 598.8 200.004 575.7 210.304C552.6 220.504 528.5 228.604 503.8 234.104C479.1 239.604 453.8 242.504 428.6 243.104C422.3 243.204 416 243.204 409.7 243.104L400.3 242.904C397.2 242.804 394 242.804 390.9 242.604C384.7 242.304 378.4 242.004 372.2 241.704L353.5 240.304C347.3 239.804 341.1 239.104 334.8 238.504L330.1 238.004L325.5 237.404L316.2 236.204C310 235.504 303.8 234.404 297.7 233.504C294.6 233.004 291.5 232.604 288.5 232.004L279.3 230.404L270.1 228.804L260.9 227.004L251.7 225.204L242.6 223.204L233.5 221.204L224.4 219.004L215.3 216.804L206.3 214.404C182.2 207.904 158.4 200.504 135 192.204C129.1 190.104 123.3 187.904 117.5 185.704C111.7 183.404 105.9 181.304 100.1 178.904C88.6 174.304 77.1 169.404 65.8 164.204C43.5 153.704 21.2 142.604 0 129.704Z" fill="white" fill-opacity="0.3"/>
</svg>
