<svg width="58" height="74" viewBox="0 0 58 74" fill="none" xmlns="http://www.w3.org/2000/svg">
<path d="M36.1225 7.03514C34.0519 4.61944 32.1884 2.47983 30.739 0.685314C30.67 0.547274 30.5319 0.478254 30.4629 0.409234C29.7037 -0.211944 28.5994 -0.0739043 27.9782 0.685314C26.5288 2.47983 24.6653 4.61944 22.5947 7.03514C13.484 17.6642 0.853424 32.2964 0.853424 44.5129C0.853424 44.858 0.853424 45.1341 0.853424 45.4792C0.853424 45.6172 0.853424 45.8243 0.853424 45.9623C0.853424 46.1003 0.922444 46.2384 0.922444 46.4454C1.40558 53.5545 4.44245 59.9733 9.20482 64.6667C14.3813 69.8431 21.4903 73.0181 29.3586 73.0181C37.2269 73.0181 44.3359 69.8431 49.5124 64.6667C53.7916 60.3874 56.6904 54.7278 57.5877 48.447C57.6567 47.8949 57.7257 47.2737 57.7948 46.6525C57.8638 45.9623 57.8638 45.2031 57.8638 44.4439C57.8638 32.2274 45.2332 17.5952 36.1225 7.03514ZM47.0277 62.182C42.4724 66.6682 36.2606 69.4981 29.3586 69.4981C22.4566 69.4981 16.2448 66.6682 11.6895 62.182C7.41031 57.9027 4.64951 51.967 4.37343 45.4792C4.51147 42.4423 5.75383 39.7505 7.7554 37.7489C9.826 35.6784 12.7248 34.367 15.9688 34.367C19.2127 34.367 22.0425 35.6784 24.1821 37.7489C26.2527 39.8195 27.5641 42.7184 27.5641 45.9623C27.5641 50.1035 29.2896 53.8996 31.9814 56.6604C34.7421 59.4212 38.4692 61.0776 42.6794 61.0776C45.0951 61.0776 47.3038 60.5255 49.3743 59.4902C48.6841 60.4565 47.8559 61.3537 47.0277 62.182ZM54.3438 45.6862C54.3438 45.7552 54.3438 45.8243 54.3438 45.8933C54.3438 46.0313 54.3438 46.1694 54.3438 46.2384C54.2747 46.8596 54.2747 47.4117 54.1367 48.0329C53.7226 50.3796 52.5493 52.4502 50.9618 54.1066C48.8912 56.1772 45.9924 57.4886 42.7484 57.4886C39.5735 57.4886 36.6747 56.1772 34.5351 54.1066C32.4645 52.036 31.1531 49.1372 31.1531 45.8933C31.1531 41.7521 29.4966 37.956 26.7358 35.1952C23.9751 32.4344 20.248 30.7779 16.0378 30.7779C12.9319 30.7779 10.0331 31.7442 7.61736 33.3317C11.6895 25.1183 19.2817 16.3528 25.2864 9.38181C26.7358 7.65631 28.1162 6.06886 29.3586 4.55042C30.601 6.06886 31.9814 7.65631 33.4308 9.31279C42.1963 19.4587 54.3438 33.4697 54.3438 44.4439C54.3438 44.858 54.3438 45.2721 54.3438 45.6862Z" fill="#59B130"/>
</svg>
