<svg width="63" height="71" viewBox="0 0 63 71" fill="none" xmlns="http://www.w3.org/2000/svg">
<path d="M62.0115 64.2541L38.9991 23.3745V3.66503H39.9855C40.7583 3.66503 41.3851 3.03817 41.3851 2.26537C41.3851 1.49197 40.7583 0.865112 39.9855 0.865112H22.7463C21.9735 0.865112 21.3467 1.49197 21.3467 2.26537C21.3467 3.03817 21.9735 3.66503 22.7463 3.66503H23.7327V23.3745L0.720262 64.2541C-0.0609153 65.643 -0.0471579 67.2933 0.756748 68.669C1.56125 70.0441 2.99201 70.8654 4.58547 70.8654H58.1463C59.7398 70.8654 61.1705 70.0441 61.9751 68.669C62.779 67.2933 62.7927 65.643 62.0115 64.2541ZM26.3532 24.4284C26.4704 24.2185 26.5326 23.9822 26.5326 23.7417V3.66503H36.1986V23.7417C36.1986 23.9822 36.2608 24.2185 36.3787 24.4284L44.8101 39.406C43.9326 39.4933 43.0031 39.5405 41.991 39.5405C37.8531 39.5405 35.8373 38.8509 33.7031 38.1217C31.4458 37.3501 29.1118 36.5516 24.5085 36.5516C22.3348 36.5516 20.6672 36.734 19.2747 37.0032L26.3532 24.4284ZM59.558 67.255C59.415 67.499 58.9927 68.0649 58.1463 68.0649H4.58547C3.7391 68.0649 3.31681 67.499 3.17385 67.255C3.03149 67.0115 2.74498 66.3655 3.16069 65.628L17.369 40.3875C19.121 39.8241 21.0877 39.3515 24.5085 39.3515C28.6464 39.3515 30.6622 40.0412 32.7964 40.7703C35.0538 41.5425 37.3877 42.3411 41.991 42.3411C43.5648 42.3411 44.98 42.2406 46.2947 42.0438L59.5711 65.628C59.9868 66.3655 59.7003 67.0115 59.558 67.255Z" fill="#59B130"/>
</svg>
