<svg width="83" height="83" viewBox="0 0 83 83" fill="none" xmlns="http://www.w3.org/2000/svg">
<path d="M67.5571 53.8208C65.0433 51.4932 63.7981 49.0595 63.9561 46.7825C64.0884 44.8778 65.1834 43.1574 67.1228 41.8068C71.6294 38.6682 71.4055 34.4858 69.8446 31.8577C67.9794 28.7175 64.3676 27.4524 61.443 28.9145C60.7661 29.2529 60.2123 29.7953 59.626 30.3697C58.773 31.2052 57.8908 32.0692 56.5287 32.4408C55.6346 32.6846 54.585 32.5175 53.79 32.0045C53.1991 31.6234 52.8243 31.1061 52.7351 30.5479C52.3758 28.303 54.0589 26.208 55.8408 23.99C57.6817 21.6984 59.5853 19.3292 59.155 16.5648C58.4538 12.0597 54.4803 9.71534 51.0955 9.79878C47.698 9.88158 45.2657 12.1718 44.8986 15.6331C44.4633 19.736 43.2943 22.5042 41.6067 23.4278C40.5236 24.0206 39.1237 23.896 37.4459 23.057C35.0485 21.8583 32.8021 21.6217 30.9496 22.3729C29.4013 23.0007 28.2527 24.2762 27.6278 26.0614C26.4844 29.3286 28.5403 31.6315 29.9007 33.1556C30.198 33.4885 30.4787 33.8031 30.6948 34.0866C31.8698 35.6287 31.1656 37.6451 29.8061 38.7033C27.6971 40.3452 25.4403 39.0365 24.0316 37.2649C20.2775 32.5436 15.9916 30.3021 12.5682 31.2688C10.2322 31.9285 8.68104 34.0411 8.3122 37.0647C7.74829 41.6894 11.635 43.5488 15.0639 45.1893C17.2807 46.2499 19.5725 47.3463 20.4284 49.0601C21.0583 50.3215 20.2639 51.5206 18.6857 53.7058C16.7046 56.4488 13.9915 60.2053 15.2874 65.8816C16.5159 71.2622 20.2689 74.729 25.5846 75.3928C26.1804 75.4671 26.7767 75.5033 27.3688 75.5033C32.1416 75.5033 36.6441 73.1525 38.4968 69.5314C40.8863 64.861 43.4452 62.3125 46.1028 61.9568C49.7465 61.4691 53.2019 65.2595 55.0582 67.2959C55.2508 67.5073 55.4292 67.703 55.5926 67.8781C57.8828 70.3317 61.5383 71.2821 65.1349 70.3575C68.5808 69.4715 71.1829 67.0965 71.9256 64.1594C72.9911 59.9444 70.1382 56.2106 67.5571 53.8208ZM69.5964 63.5707C69.0693 65.6551 67.1305 67.3643 64.5364 68.031C62.386 68.5839 59.3685 68.4034 57.3487 66.2392C57.1911 66.0704 57.0191 65.8817 56.8333 65.6778C54.6811 63.3163 50.6774 58.9208 45.7838 59.5759C42.2988 60.0424 39.1275 63.0239 36.3579 68.4375C34.7458 71.5884 30.2425 73.5539 25.882 73.0092C21.6278 72.4781 18.6197 69.6853 17.6293 65.3471C16.5753 60.7309 18.731 57.7461 20.6331 55.1125C22.2324 52.898 23.8863 50.6082 22.5775 47.9871C21.3531 45.5352 18.683 44.2577 16.1006 43.0224C12.5299 41.3143 10.3588 40.1267 10.6968 37.3559C10.8412 36.1713 11.3613 34.106 13.2212 33.581C13.5248 33.4951 13.8467 33.4533 14.1836 33.4533C16.4929 33.4533 19.5001 35.4263 22.1514 38.7604C25.1866 42.5773 28.9242 42.4344 31.2817 40.5994C32.4373 39.6999 33.2707 38.3861 33.5688 36.9949C33.9029 35.4343 33.5609 33.8846 32.6058 32.6311C32.3332 32.2733 32.0221 31.9249 31.693 31.5563C30.1991 29.8826 29.2668 28.6513 29.8954 26.8555C30.2912 25.7246 30.9497 24.9656 31.8525 24.5995C33.0299 24.1219 34.6349 24.3375 36.3717 25.206C38.7958 26.4183 40.9451 26.5289 42.7603 25.5355C45.2287 24.1846 46.7518 20.9385 47.2877 15.8868C47.5268 13.6318 48.9724 12.2537 51.1543 12.2005C53.5202 12.1409 56.2909 13.7827 56.7814 16.9343C57.0487 18.6511 55.5524 20.5138 53.9684 22.4854C52.0312 24.8968 49.8358 27.6297 50.3633 30.9275C50.5617 32.1679 51.3164 33.2672 52.4883 34.0233C53.8594 34.9077 55.606 35.1825 57.1613 34.7584C59.1261 34.2225 60.3356 33.0377 61.3075 32.0857C61.7551 31.6472 62.1782 31.2329 62.5178 31.0631C64.0357 30.3041 66.3958 30.7547 67.7794 33.0846C68.8638 34.9099 68.8999 37.6417 65.7501 39.8354C63.2297 41.5906 61.7415 43.9987 61.5599 46.6163C61.4133 48.7275 62.0517 51.9969 65.9251 55.5836C68.9417 58.3768 70.2112 61.1388 69.5964 63.5707Z" fill="#59B130"/>
<path d="M17.7405 12.2143C17.4839 10.4699 16.8207 8.57526 15.8729 6.8792C13.6695 2.93616 10.4494 0.749225 7.0387 0.870143C4.62595 0.957908 2.5114 2.39867 1.51988 4.63013C0.298525 7.37905 0.954205 10.6701 3.27375 13.4339C6.03612 16.7254 9.89413 18.8683 12.9991 18.8683C13.1195 18.8683 13.239 18.8651 13.3572 18.8586C14.9724 18.7695 16.2557 18.0778 17.0685 16.8585C17.986 15.4823 17.9404 13.5734 17.7405 12.2143ZM15.0697 15.5259C14.6822 16.1072 14.0787 16.4128 13.2247 16.4599C10.856 16.5911 7.44598 14.6686 5.11378 11.8895C3.39819 9.8453 2.87528 7.49613 3.7153 5.60548C4.34055 4.19835 5.61555 3.3255 7.12615 3.27056C7.19053 3.26816 7.25395 3.26704 7.31769 3.26704C10.729 3.26704 12.9642 6.59797 13.776 8.05059C15.1581 10.5244 16.0079 14.1184 15.0697 15.5259Z" fill="#59B130"/>
<path d="M36.6121 9.28213C36.4195 8.15367 35.032 4.98722 32.7416 3.84674C31.6135 3.28524 30.4277 3.2934 29.3125 3.87077C27.5556 4.78061 26.5415 6.41309 26.5998 8.23743C26.6659 10.3134 28.0659 12.1502 30.3446 13.1513C31.4468 13.6357 32.3614 13.8186 33.1145 13.8186C34.1488 13.8186 34.8783 13.4734 35.3691 13.0902C36.415 12.2734 36.8797 10.8497 36.6121 9.28213ZM33.8906 11.1968C33.4346 11.553 32.47 11.4614 31.311 10.9521C29.9005 10.3323 29.0369 9.28869 29.0009 8.16071C28.9725 7.27072 29.4887 6.48468 30.4173 6.00373C30.8468 5.78111 31.2336 5.77903 31.671 5.997C33.0418 6.67943 34.1324 9.03116 34.2442 9.68604C34.3587 10.3581 34.2236 10.9369 33.8906 11.1968Z" fill="#59B130"/>
<path d="M75.5092 13.3223C75.3343 12.2712 74.7719 11.4622 73.8825 10.983C73.0228 10.5197 71.8841 10.3952 70.4982 10.6135C68.5865 10.9143 66.9742 12.4504 66.0749 14.8274C65.2962 16.8857 65.0927 19.6657 66.3934 21.2377C66.9633 21.9262 67.7477 22.2883 68.6449 22.2883C68.8475 22.2883 69.0559 22.2697 69.2689 22.2324C70.8456 21.9558 72.5137 20.6896 73.8454 18.7581C75.1409 16.8796 75.7629 14.8474 75.5092 13.3223ZM68.8538 19.8664C68.4375 19.9396 68.3164 19.7934 68.2439 19.7062C67.7666 19.129 67.6604 17.4248 68.3216 15.6777C68.8984 14.153 69.8517 13.147 70.8717 12.9866C72.9626 12.6579 73.0913 13.4268 73.1394 13.7164C73.4736 15.7264 70.8303 19.5198 68.8538 19.8664Z" fill="#59B130"/>
<path d="M81.9026 74.8163C80.4419 72.8953 77.7224 71.7789 75.4381 72.1607C73.6855 72.4538 72.4076 73.5622 71.8399 75.282C70.8596 78.2516 73.0848 81.3899 75.7783 82.4578C76.4701 82.7321 77.1547 82.8651 77.8132 82.8651C79.7702 82.8651 81.496 81.6897 82.4907 79.555C83.2188 77.9925 83.0047 76.2655 81.9026 74.8163ZM80.3133 78.5404C79.8533 79.5276 78.7674 81.0591 76.6638 80.2249C74.677 79.4371 73.6828 77.3632 74.1211 76.0354C74.4077 75.1676 74.9679 74.6753 75.8342 74.5305C76.006 74.5017 76.1841 74.4879 76.3659 74.4879C77.6753 74.4879 79.1816 75.207 79.9905 76.2708C80.5584 77.0176 80.667 77.7811 80.3133 78.5404Z" fill="#59B130"/>
</svg>
