<svg width="84" height="65" viewBox="0 0 84 65" fill="none" xmlns="http://www.w3.org/2000/svg">
<path d="M77.3916 0.639771H6.85362C3.41741 0.639771 0.621954 3.43523 0.621954 6.8706V38.0931C0.621954 41.5284 3.41741 44.3247 6.85362 44.3247H24.0046C26.8343 48.7416 26.8043 54.3759 23.8847 58.7553L21.4233 62.4473C20.9767 63.1164 21.1575 64.0196 21.8266 64.4662C22.0757 64.632 22.3557 64.7111 22.6332 64.7111C23.1039 64.7111 23.5655 64.4837 23.8463 64.0629L26.3077 60.3709C29.5347 55.5324 29.8772 49.4365 27.3534 44.3247H42.9346C45.7642 48.7425 45.7342 54.3767 42.8146 58.7553L40.3533 62.4473C39.9058 63.1164 40.0875 64.0196 40.7566 64.467C41.0057 64.632 41.2856 64.7111 41.5631 64.7111C42.0339 64.7111 42.4955 64.4837 42.7763 64.0629L45.2376 60.3709C48.4638 55.5332 48.8071 49.4374 46.2825 44.3247H61.8637C64.6933 48.7425 64.6642 54.3767 61.7446 58.7561L59.2824 62.4473C58.8358 63.1172 59.0166 64.0204 59.6865 64.467C59.9356 64.6328 60.2156 64.712 60.4931 64.712C60.963 64.712 61.4254 64.4845 61.7054 64.0629L64.1676 60.3717C67.3938 55.5332 67.7371 49.4374 65.2124 44.3256H77.3908C80.8262 44.3256 83.6216 41.5293 83.6216 38.0939V6.8706C83.6233 3.43523 80.827 0.639771 77.3916 0.639771ZM80.7103 38.0931C80.7103 39.9228 79.2222 41.4118 77.3916 41.4118H63.5543C62.522 39.4945 61.9512 37.3715 61.9512 35.176V29.7625H66.1348C66.6264 29.7625 67.0847 29.5142 67.353 29.1034C67.6221 28.6927 67.6663 28.1736 67.4688 27.7236L62.0579 15.347C61.8262 14.8162 61.303 14.4737 60.7239 14.4737C60.1456 14.4737 59.6223 14.8162 59.3907 15.3461L53.9781 27.7228C53.7806 28.1736 53.8248 28.6927 54.0931 29.1034C54.3622 29.5142 54.8197 29.7625 55.3113 29.7625H59.0391V35.176C59.0391 37.3365 59.4774 39.447 60.3048 41.4118H44.6244C43.5912 39.4945 43.0204 37.3715 43.0204 35.176V29.7625H47.204C47.6965 29.7625 48.1539 29.5142 48.423 29.1034C48.6922 28.6927 48.7355 28.1736 48.538 27.7236L43.1279 15.347C42.8963 14.8162 42.373 14.4737 41.7939 14.4737C41.2157 14.4737 40.6924 14.8162 40.4599 15.3461L35.0482 27.7228C34.8507 28.1736 34.8948 28.6927 35.1631 29.1034C35.4314 29.5142 35.8897 29.7625 36.3813 29.7625H40.1083V35.176C40.1083 37.3365 40.5474 39.447 41.3748 41.4118H25.6944C24.6612 39.4945 24.0905 37.3715 24.0905 35.176V29.7625H28.2741C28.7665 29.7625 29.2239 29.5142 29.4931 29.1034C29.7622 28.6927 29.8055 28.1736 29.6081 27.7236L24.1979 15.347C23.9663 14.8162 23.443 14.4737 22.864 14.4737C22.2849 14.4737 21.7624 14.8162 21.53 15.3461L16.1182 27.7228C15.9207 28.1736 15.9641 28.6927 16.2332 29.1034C16.5015 29.5142 16.9598 29.7625 17.4514 29.7625H21.1784V35.176C21.1784 37.3365 21.6175 39.447 22.444 41.4118H6.85362C5.02303 41.4118 3.53406 39.9228 3.53406 38.0931V6.8706C3.53406 5.04084 5.02303 3.55188 6.85362 3.55188H77.3916C79.2222 3.55188 80.7103 5.04084 80.7103 6.8706V38.0931ZM57.5376 26.8504L60.7239 19.5647L63.9093 26.8504H57.5376ZM38.6077 26.8504L41.7939 19.5647L44.9793 26.8504H38.6077ZM19.6769 26.8504L22.864 19.5647L26.0494 26.8504H19.6769Z" fill="#59B130"/>
</svg>
