<svg width="62" height="67" viewBox="0 0 62 67" fill="none" xmlns="http://www.w3.org/2000/svg">
<path d="M41.4981 20.1443C41.1362 20.1443 40.7753 20.0015 40.5065 19.7183L34.7028 13.6018C34.1833 13.0544 34.2061 12.1892 34.7535 11.6697C35.301 11.15 36.166 11.173 36.6855 11.7205L42.4892 17.8369C43.0087 18.3843 42.9861 19.2495 42.4386 19.769C42.1742 20.0199 41.8358 20.1443 41.4981 20.1443Z" fill="#59B130"/>
<path d="M46.9702 20.1443C46.6083 20.1443 46.2471 20.0015 45.9785 19.7183L40.175 13.6018C39.6555 13.0542 39.6783 12.1892 40.2259 11.6697C40.7734 11.1504 41.6386 11.1731 42.1579 11.7205L47.9614 17.8369C48.4809 18.3845 48.4582 19.2495 47.9106 19.769C47.6462 20.0199 47.3078 20.1443 46.9702 20.1443Z" fill="#59B130"/>
<path d="M52.442 20.1443C52.0802 20.1443 51.7192 20.0015 51.4504 19.7183L45.6467 13.6018C45.1272 13.0544 45.1498 12.1892 45.6974 11.6697C46.2449 11.15 47.1099 11.173 47.6294 11.7205L53.4331 17.8369C53.9526 18.3843 53.93 19.2495 53.3825 19.769C53.1181 20.0199 52.7797 20.1443 52.442 20.1443Z" fill="#59B130"/>
<path d="M43.4599 59.0866C44.2146 59.0866 44.8265 58.4747 44.8265 57.7199V54.5982C46.1961 53.9066 48.0055 52.2271 48.9219 48.1436C50.4223 41.4569 51.3879 37.6137 52.2545 34.8788C53.6142 30.5873 55.904 27.4694 57.0908 26.0479C59.7255 23.2872 61.3256 19.6797 61.3303 15.7364C61.3305 15.731 61.3305 15.7253 61.3305 15.7197C61.3301 7.0517 53.6239 0 44.1518 0C44.1352 0 44.1186 0.000182219 44.1022 0.000911096C43.6855 0.0160353 33.7498 0.442246 15.0534 6.62932L6.37555 4.04982C6.24909 4.0121 6.11789 3.99315 5.98614 3.99315C2.38567 3.99315 0.501892 9.89231 0.501892 15.7195C0.501892 21.5469 2.38567 27.446 5.98614 27.446C6.11807 27.446 6.24909 27.4269 6.37555 27.3894L15.0532 24.8097C25.4417 28.2474 33.1237 29.9062 37.9727 30.7045C38.4186 31.3377 39.2668 32.8124 38.5447 34.0504C38.3011 34.4684 37.9667 34.9721 37.5797 35.5552C35.6795 38.418 32.8081 42.7444 34.1241 46.8945C35.2724 50.5161 36.4474 53.1681 36.8402 54.02V57.7199C36.8402 58.4747 37.4521 59.0866 38.2069 59.0866H39.4667V61.901C39.4667 64.7124 41.7541 67 44.566 67H58.5932C59.3479 67 59.9598 66.3881 59.9598 65.6333C59.9598 64.8786 59.3479 64.2667 58.5932 64.2667H44.5661C43.2614 64.2665 42.2002 63.2053 42.2002 61.901V59.0866H43.4599ZM13.7084 22.3579L5.8595 24.6912C4.98157 24.4103 3.23518 21.3661 3.23518 15.7195C3.23518 10.0731 4.98157 7.02911 5.8595 6.74794L13.7086 9.08108L13.7084 22.3579ZM39.5733 56.3533V55.0821H42.0931V56.3533H39.5733ZM16.4417 22.3896V9.04901C33.9823 3.29835 43.6709 2.75789 44.1809 2.73329C52.1273 2.7475 58.5881 8.5592 58.5968 15.7044C58.5966 15.7093 58.5966 15.7144 58.5966 15.7195C58.5966 22.8714 52.1317 28.6915 44.18 28.7057C43.6629 28.6815 34.0279 28.1558 16.4417 22.3896ZM40.7968 35.608H41.876C42.4269 35.608 42.9101 36.3165 42.9101 37.1239C42.9101 37.9315 42.4269 38.6399 41.876 38.6399H38.8352C39.1863 38.0774 40.5293 36.0512 40.7968 35.608ZM36.7294 46.0681C36.2677 44.6118 36.6509 42.9622 37.351 41.3732H41.876C43.9533 41.3732 45.6434 39.467 45.6434 37.1239C45.6434 34.7809 43.9533 32.8747 41.876 32.8747H41.5652C41.55 32.2714 41.4289 31.6981 41.2548 31.1784C43.0229 31.3931 44.1352 31.4385 44.1516 31.439C46.7663 31.5188 49.107 30.9306 51.2795 30.0202C50.6832 31.2262 50.1176 32.5728 49.6486 34.0529C48.7568 36.8679 47.7736 40.7766 46.2548 47.545C45.2411 52.0628 43.2279 52.3343 43.0617 52.3488H39.0857C38.5906 51.2264 37.646 48.9592 36.7294 46.0681Z" fill="#59B130"/>
</svg>
