<svg width="72" height="72" viewBox="0 0 72 72" fill="none" xmlns="http://www.w3.org/2000/svg">
<path d="M66.1177 63.3266H63.8282V65.6162H66.1177V63.3266Z" fill="#59B130"/>
<path d="M43.2226 64.4714H40.9331V66.7609H43.2226V64.4714Z" fill="#59B130"/>
<path d="M71.7611 63.3749C71.6018 62.412 71.2392 61.494 70.6973 60.6823V40.4315C70.689 35.2498 67.5099 30.6011 62.684 28.7138V24.405C62.684 23.7728 62.1715 23.2602 61.5393 23.2602H55.1447L58.5789 19.8259H66.1183C66.4219 19.8259 66.713 19.7052 66.9276 19.4905L71.5067 14.9115C71.7213 14.6969 71.8421 14.4058 71.8421 14.1022V8.3784C71.8421 8.07475 71.7213 7.7837 71.5067 7.56906L66.9276 2.99004C66.713 2.77539 66.4219 2.65462 66.1183 2.65462H61.5393V1.50987C61.5393 0.877676 61.0267 0.365112 60.3945 0.365112H44.368C44.0643 0.365112 43.7733 0.485884 43.5586 0.700526L34.4006 9.85857L11.7653 32.4938L5.25739 33.579V33.5985C5.02301 33.6301 4.80464 33.7352 4.6335 33.8984L1.19924 37.3327C0.752354 37.7797 0.752354 38.5043 1.19924 38.9514L11.502 49.2542C11.9491 49.7011 12.6737 49.7011 13.1207 49.2542L16.555 45.8199C16.719 45.6488 16.824 45.4298 16.8549 45.1949H16.8744L17.9596 38.6881L40.5983 16.0563L49.4209 7.23364H60.3945C61.0267 7.23364 61.5393 6.72108 61.5393 6.08889V4.94413H65.6444L69.5526 8.85233V13.6282L65.6444 17.5364H58.105C57.8014 17.5364 57.5103 17.6572 57.2957 17.8719L51.9073 23.2602H45.5127C44.8805 23.2602 44.368 23.7728 44.368 24.405V28.7138C39.5421 30.6011 36.3631 35.2498 36.3547 40.4315V65.6162C36.3547 68.7773 38.9173 71.3399 42.0784 71.3399C45.2395 71.3399 47.8022 68.7773 47.8022 65.6162H58.208C58.8269 69.3586 62.3626 71.8908 66.1051 71.272C69.8478 70.6531 72.38 67.1174 71.7611 63.3749ZM12.3148 46.8261L3.6307 38.142L5.44628 36.3265L14.1304 45.0106L12.3148 46.8261ZM16.0845 37.3327C15.9158 37.5015 15.8042 37.7189 15.7651 37.9543L14.9855 42.6283L7.82851 35.4713L12.5037 34.6917C12.7387 34.6524 12.9556 34.5408 13.1242 34.3724L35.2099 12.2866L38.1702 15.2469L16.0845 37.3327ZM39.7889 13.6282L36.8286 10.6679L44.368 3.12855L47.3283 6.08889L39.7889 13.6282ZM59.2498 4.94413H49.4209L47.1314 2.65462H59.2498V4.94413ZM46.6575 25.5497H60.3945V28.0579C59.6397 27.9152 58.8733 27.8421 58.105 27.8392H48.947C48.1787 27.8421 47.4124 27.9152 46.6575 28.0579V25.5497ZM48.947 30.1287H58.105C63.3499 30.135 67.7553 34.0751 68.3448 39.2868H38.7071C39.2965 34.0751 43.7021 30.135 48.947 30.1287ZM38.6442 41.5763H68.4078V43.8658H38.6442V41.5763ZM68.4078 46.1553V50.7343H61.5393V46.1553H68.4078ZM38.6442 46.1553H59.2498V48.4448H38.6442V46.1553ZM38.6442 50.7343H59.2498V51.8791C59.2498 52.5113 59.7623 53.0238 60.3945 53.0238H68.4078V58.5324C67.7004 58.122 66.9248 57.8421 66.1183 57.7059V56.4581C66.1183 55.8259 65.6057 55.3134 64.9735 55.3134H42.0784C41.4463 55.3134 40.9337 55.8259 40.9337 56.4581V60.0069C40.1007 60.1834 39.3182 60.5453 38.6442 61.0658V50.7343ZM42.0784 69.0504C40.1817 69.0504 38.6442 67.5129 38.6442 65.6162C38.6442 63.7194 40.1817 62.1819 42.0784 62.1819C43.9752 62.1819 45.5127 63.7194 45.5127 65.6162C45.5127 67.5129 43.9752 69.0504 42.0784 69.0504ZM58.208 63.3266H47.3168C46.571 61.622 45.0452 60.3845 43.2232 60.0069V57.6029H63.8288V57.7059C60.9526 58.1974 58.6996 60.4504 58.208 63.3266ZM64.9735 69.0504C62.4446 69.0504 60.3945 67.0003 60.3945 64.4714C60.3945 61.9425 62.4446 59.8924 64.9735 59.8924C67.5024 59.8924 69.5526 61.9425 69.5526 64.4714C69.5526 67.0003 67.5024 69.0504 64.9735 69.0504Z" fill="#59B130"/>
<path d="M7.7352 49.5896C7.7352 47.6929 6.19765 46.1553 4.30093 46.1553C2.40422 46.1553 0.866669 47.6929 0.866669 49.5896C0.866669 51.4863 2.40422 53.0238 4.30093 53.0238C6.19765 53.0238 7.7352 51.4863 7.7352 49.5896ZM3.15618 49.5896C3.15618 48.9574 3.66874 48.4448 4.30093 48.4448C4.93313 48.4448 5.44569 48.9574 5.44569 49.5896C5.44569 50.2218 4.93313 50.7343 4.30093 50.7343C3.66874 50.7343 3.15618 50.2218 3.15618 49.5896Z" fill="#59B130"/>
<path d="M5.44569 62.1819C2.91678 62.1819 0.866669 64.232 0.866669 66.7609C0.866669 69.2898 2.91678 71.3399 5.44569 71.3399C7.9746 71.3399 10.0247 69.2898 10.0247 66.7609C10.0247 64.232 7.9746 62.1819 5.44569 62.1819ZM5.44569 69.0504C4.18116 69.0504 3.15618 68.0254 3.15618 66.7609C3.15618 65.4964 4.18116 64.4714 5.44569 64.4714C6.71021 64.4714 7.7352 65.4964 7.7352 66.7609C7.7352 68.0254 6.71021 69.0504 5.44569 69.0504Z" fill="#59B130"/>
<path d="M11.1695 53.0238C9.27275 53.0238 7.7352 54.5614 7.7352 56.4581C7.7352 58.3548 9.27275 59.8924 11.1695 59.8924C13.0662 59.8924 14.6037 58.3548 14.6037 56.4581C14.6037 54.5614 13.0662 53.0238 11.1695 53.0238ZM11.1695 57.6029C10.5373 57.6029 10.0247 57.0903 10.0247 56.4581C10.0247 55.8259 10.5373 55.3134 11.1695 55.3134C11.8017 55.3134 12.3142 55.8259 12.3142 56.4581C12.3142 57.0903 11.8017 57.6029 11.1695 57.6029Z" fill="#59B130"/>
<path d="M21.4723 56.4581C19.5755 56.4581 18.038 57.9957 18.038 59.8924C18.038 61.7891 19.5755 63.3266 21.4723 63.3266C23.369 63.3266 24.9065 61.7891 24.9065 59.8924C24.9065 57.9957 23.369 56.4581 21.4723 56.4581ZM21.4723 61.0371C20.8401 61.0371 20.3275 60.5246 20.3275 59.8924C20.3275 59.2602 20.8401 58.7476 21.4723 58.7476C22.1044 58.7476 22.617 59.2602 22.617 59.8924C22.617 60.5246 22.1044 61.0371 21.4723 61.0371Z" fill="#59B130"/>
<path d="M22.617 43.8658C20.0881 43.8658 18.038 45.9159 18.038 48.4448C18.038 50.9737 20.0881 53.0238 22.617 53.0238C25.1459 53.0238 27.196 50.9737 27.196 48.4448C27.196 45.9159 25.1459 43.8658 22.617 43.8658ZM22.617 50.7343C21.3525 50.7343 20.3275 49.7094 20.3275 48.4448C20.3275 47.1803 21.3525 46.1553 22.617 46.1553C23.8815 46.1553 24.9065 47.1803 24.9065 48.4448C24.9065 49.7094 23.8815 50.7343 22.617 50.7343Z" fill="#59B130"/>
<path d="M14.6037 62.1819H12.3142V64.4714H14.6037V62.1819Z" fill="#59B130"/>
<path d="M19.1828 65.6161H16.8932V67.9057H19.1828V65.6161Z" fill="#59B130"/>
</svg>
