<svg width="20" height="21" viewBox="0 0 20 21" fill="none" xmlns="http://www.w3.org/2000/svg">
<path d="M18.4211 13.3061C17.1873 13.3061 15.979 13.1135 14.8337 12.7356C14.2747 12.543 13.64 12.6914 13.2726 13.0661L11.0021 14.7809C8.39685 13.3904 6.72948 11.724 5.35792 9.1377L7.02632 6.92086C7.44632 6.50086 7.59686 5.8861 7.41686 5.31033C7.0358 4.1577 6.84213 2.94822 6.84213 1.71664C6.84213 0.846101 6.13372 0.137695 5.26318 0.137695H1.57895C0.708405 0.137695 0 0.846101 0 1.71664C0 11.8735 8.26422 20.1377 18.4211 20.1377C19.2916 20.1377 20 19.4293 20 18.5587V14.8851C20 14.0145 19.2916 13.3061 18.4211 13.3061Z" fill="#59B130"/>
</svg>
