<svg width="112" height="112" viewBox="0 0 112 112" fill="none" xmlns="http://www.w3.org/2000/svg">
<path d="M102.667 37.3333H95.2V9.33333C95.1939 4.18133 91.0187 0.00606667 85.8667 0H26.1333C20.9813 0.00606667 16.8061 4.18133 16.8 9.33333V37.3333H9.33333C4.18133 37.3394 0.00606667 41.5147 0 46.6667V87.7333C0 88.7642 0.8358 89.6 1.86667 89.6H7.46667V91.4667C7.46667 94.5595 9.97383 97.0667 13.0667 97.0667H16.8V110.133C16.8 111.164 17.6358 112 18.6667 112H24.2667C25.0453 112 25.7425 111.518 26.0157 110.789L31.1603 97.0667H80.8397L85.9843 110.789C86.2575 111.518 86.9547 112 87.7333 112H93.3333C94.3642 112 95.2 111.164 95.2 110.133V97.0667H98.9333C102.026 97.0667 104.533 94.5595 104.533 91.4667V89.6H110.133C111.164 89.6 112 88.7642 112 87.7333V46.6667C111.994 41.5147 107.819 37.3394 102.667 37.3333ZM20.5333 9.33333C20.5333 6.2405 23.0405 3.73333 26.1333 3.73333H85.8667C88.9595 3.73333 91.4667 6.2405 91.4667 9.33333V37.3333H84C82.9691 37.3333 82.1333 38.1691 82.1333 39.2V59.7333H29.8667V39.2C29.8667 38.1691 29.0309 37.3333 28 37.3333H20.5333V9.33333ZM7.46667 65.3333V85.8667H3.73333V46.6667C3.73333 43.5738 6.2405 41.0667 9.33333 41.0667H26.1333V59.7333H13.0667C9.97383 59.7333 7.46667 62.2405 7.46667 65.3333ZM22.9731 108.267H20.5333V97.0667H27.1731L22.9731 108.267ZM91.4667 108.267H89.0269L84.8269 97.0667H91.4667V108.267ZM100.8 91.4667C100.8 92.4975 99.9642 93.3333 98.9333 93.3333H13.0667C12.0358 93.3333 11.2 92.4975 11.2 91.4667V65.3333C11.2 64.3025 12.0358 63.4667 13.0667 63.4667H98.9333C99.9642 63.4667 100.8 64.3025 100.8 65.3333V91.4667ZM108.267 85.8667H104.533V65.3333C104.533 62.2405 102.026 59.7333 98.9333 59.7333H85.8667V41.0667H102.667C105.759 41.0667 108.267 43.5738 108.267 46.6667V85.8667Z" fill="black"/>
<path d="M80.2667 85.8667H16.8C15.7691 85.8667 14.9333 86.7025 14.9333 87.7333C14.9333 88.7642 15.7691 89.6 16.8 89.6H80.2667C81.2975 89.6 82.1333 88.7642 82.1333 87.7333C82.1333 86.7025 81.2975 85.8667 80.2667 85.8667Z" fill="black"/>
<path d="M95.2 85.8667H87.7334C86.7025 85.8667 85.8667 86.7025 85.8667 87.7333C85.8667 88.7642 86.7025 89.6 87.7334 89.6H95.2C96.2309 89.6 97.0667 88.7642 97.0667 87.7333C97.0667 86.7025 96.2309 85.8667 95.2 85.8667Z" fill="black"/>
<path d="M56 28C58.0619 28 59.7333 26.3285 59.7333 24.2667C59.7333 22.2048 58.0619 20.5333 56 20.5333C53.9381 20.5333 52.2667 22.2048 52.2667 24.2667C52.2667 26.3285 53.9381 28 56 28Z" fill="black"/>
<path d="M44.8 42.9333C46.8618 42.9333 48.5333 41.2619 48.5333 39.2C48.5333 37.1381 46.8618 35.4667 44.8 35.4667C42.7381 35.4667 41.0667 37.1381 41.0667 39.2C41.0667 41.2619 42.7381 42.9333 44.8 42.9333Z" fill="black"/>
<path d="M67.2 42.9333C69.2619 42.9333 70.9333 41.2619 70.9333 39.2C70.9333 37.1381 69.2619 35.4667 67.2 35.4667C65.1381 35.4667 63.4667 37.1381 63.4667 39.2C63.4667 41.2619 65.1381 42.9333 67.2 42.9333Z" fill="black"/>
<path d="M33.6 28C35.6619 28 37.3334 26.3285 37.3334 24.2667C37.3334 22.2048 35.6619 20.5333 33.6 20.5333C31.5382 20.5333 29.8667 22.2048 29.8667 24.2667C29.8667 26.3285 31.5382 28 33.6 28Z" fill="black"/>
<path d="M78.4 28C80.4619 28 82.1333 26.3285 82.1333 24.2667C82.1333 22.2048 80.4619 20.5333 78.4 20.5333C76.3382 20.5333 74.6667 22.2048 74.6667 24.2667C74.6667 26.3285 76.3382 28 78.4 28Z" fill="black"/>
</svg>
