<svg width="144" height="144" viewBox="0 0 144 144" fill="none" xmlns="http://www.w3.org/2000/svg">
<path d="M116.757 111.528C115.482 111.528 114.235 111.151 113.175 110.442C112.114 109.734 111.287 108.728 110.799 107.55C110.311 106.372 110.183 105.075 110.432 103.825C110.68 102.574 111.294 101.425 112.195 100.523C113.097 99.6213 114.246 99.0071 115.496 98.7582C116.747 98.5093 118.043 98.6368 119.221 99.1247C120.4 99.6126 121.407 100.439 122.115 101.499C122.824 102.559 123.202 103.806 123.202 105.081C123.2 106.79 122.521 108.429 121.312 109.637C120.104 110.846 118.466 111.526 116.757 111.528ZM116.757 102.528C116.251 102.528 115.757 102.677 115.337 102.958C114.916 103.238 114.588 103.637 114.395 104.104C114.201 104.571 114.15 105.085 114.249 105.581C114.347 106.077 114.591 106.532 114.948 106.89C115.306 107.247 115.761 107.491 116.257 107.589C116.753 107.688 117.267 107.637 117.733 107.443C118.2 107.25 118.599 106.922 118.88 106.501C119.161 106.081 119.31 105.587 119.31 105.081C119.309 104.404 119.04 103.755 118.561 103.276C118.083 102.798 117.434 102.529 116.757 102.528Z" fill="black"/>
<path d="M138.162 107.027H128.841C128.325 107.027 127.83 106.822 127.465 106.457C127.1 106.092 126.895 105.597 126.895 105.081C126.895 104.565 127.1 104.07 127.465 103.705C127.83 103.34 128.325 103.135 128.841 103.135H136.216V67.5418L120.271 46.7027H97.2973V103.135H104.672C105.189 103.135 105.683 103.34 106.048 103.705C106.413 104.07 106.618 104.565 106.618 105.081C106.618 105.597 106.413 106.092 106.048 106.457C105.683 106.822 105.189 107.027 104.672 107.027H95.3513C94.8352 107.027 94.3403 106.822 93.9753 106.457C93.6104 106.092 93.4054 105.597 93.4054 105.081V44.7568C93.4054 44.2407 93.6104 43.7457 93.9753 43.3808C94.3403 43.0158 94.8352 42.8108 95.3513 42.8108H121.232C121.531 42.8108 121.826 42.8796 122.094 43.0119C122.362 43.1442 122.596 43.3364 122.778 43.5736L139.707 65.699C139.967 66.0386 140.108 66.4544 140.108 66.8822V105.081C140.108 105.597 139.903 106.092 139.538 106.457C139.173 106.822 138.678 107.027 138.162 107.027Z" fill="black"/>
<path d="M95.3514 107.027H47.52C47.0039 107.027 46.5089 106.822 46.144 106.457C45.7791 106.092 45.5741 105.597 45.5741 105.081C45.5741 104.565 45.7791 104.07 46.144 103.705C46.5089 103.34 47.0039 103.135 47.52 103.135H93.4054V33.0616H7.78378V103.135H23.3514C23.8674 103.135 24.3624 103.34 24.7273 103.705C25.0923 104.07 25.2973 104.565 25.2973 105.081C25.2973 105.597 25.0923 106.092 24.7273 106.457C24.3624 106.822 23.8674 107.027 23.3514 107.027H5.83784C5.32174 107.027 4.82678 106.822 4.46185 106.457C4.09691 106.092 3.89189 105.597 3.89189 105.081V31.1157C3.89189 30.5996 4.09691 30.1046 4.46185 29.7397C4.82678 29.3748 5.32174 29.1697 5.83784 29.1697H95.3514C95.8675 29.1697 96.3624 29.3748 96.7273 29.7397C97.0923 30.1046 97.2973 30.5996 97.2973 31.1157V105.081C97.2973 105.597 97.0923 106.092 96.7273 106.457C96.3624 106.822 95.8675 107.027 95.3514 107.027Z" fill="black"/>
<path d="M95.3514 85.6216H5.83784C5.32174 85.6216 4.82678 85.4166 4.46185 85.0517C4.09691 84.6867 3.89189 84.1918 3.89189 83.6757C3.89189 83.1596 4.09691 82.6646 4.46185 82.2997C4.82678 81.9348 5.32174 81.7297 5.83784 81.7297H95.3514C95.8675 81.7297 96.3624 81.9348 96.7273 82.2997C97.0923 82.6646 97.2973 83.1596 97.2973 83.6757C97.2973 84.1918 97.0923 84.6867 96.7273 85.0517C96.3624 85.4166 95.8675 85.6216 95.3514 85.6216Z" fill="black"/>
<path d="M35.4318 119.107C32.6577 119.107 29.946 118.284 27.6397 116.743C25.3333 115.201 23.5358 113.01 22.4745 110.447C21.4132 107.884 21.1357 105.064 21.6771 102.343C22.2185 99.6228 23.5546 97.1237 25.5163 95.1622C27.478 93.2008 29.9772 91.8651 32.698 91.3241C35.4188 90.783 38.239 91.0609 40.8018 92.1226C43.3647 93.1843 45.5552 94.9821 47.0964 97.2886C48.6375 99.5952 49.4601 102.307 49.4601 105.081C49.456 108.8 47.9766 112.366 45.3466 114.995C42.7167 117.625 39.1509 119.104 35.4318 119.107ZM35.4318 94.9446C33.4275 94.945 31.4684 95.5397 29.8021 96.6534C28.1358 97.7672 26.8371 99.35 26.0703 101.202C25.3035 103.053 25.103 105.091 25.4941 107.057C25.8852 109.022 26.8504 110.828 28.2676 112.245C29.6848 113.663 31.4904 114.628 33.4561 115.019C35.4218 115.41 37.4594 115.209 39.3111 114.443C41.1629 113.676 42.7457 112.377 43.8594 110.711C44.9732 109.044 45.5678 107.085 45.5682 105.081C45.5651 102.394 44.4961 99.8176 42.5958 97.9176C40.6955 96.0177 38.119 94.9492 35.4318 94.9466V94.9446Z" fill="black"/>
<path d="M35.4318 111.324C34.1972 111.323 32.9904 110.957 31.9641 110.271C30.9378 109.584 30.138 108.609 29.6658 107.469C29.1936 106.328 29.0702 105.073 29.3113 103.862C29.5524 102.651 30.1471 101.539 31.0202 100.666C31.8934 99.7934 33.0057 99.199 34.2166 98.9583C35.4275 98.7176 36.6825 98.8413 37.8231 99.3139C38.9637 99.7864 39.9385 100.587 40.6244 101.613C41.3103 102.64 41.6763 103.846 41.6763 105.081C41.6743 106.736 41.0156 108.323 39.845 109.494C38.6743 110.664 37.0871 111.322 35.4318 111.324ZM35.4318 102.728C34.967 102.729 34.5128 102.867 34.1265 103.125C33.7403 103.384 33.4393 103.751 33.2616 104.18C33.0839 104.61 33.0375 105.082 33.1283 105.538C33.2191 105.994 33.4429 106.413 33.7715 106.741C34.1002 107.07 34.5188 107.294 34.9747 107.385C35.4305 107.475 35.903 107.429 36.3324 107.251C36.7619 107.074 37.129 106.773 37.3875 106.386C37.6459 106 37.7841 105.546 37.7844 105.081C37.7834 104.458 37.5351 103.86 37.0941 103.419C36.6531 102.979 36.0553 102.731 35.4318 102.73V102.728Z" fill="black"/>
<path d="M116.757 119.107C113.983 119.107 111.271 118.285 108.964 116.744C106.657 115.202 104.86 113.012 103.798 110.449C102.736 107.886 102.459 105.066 103 102.345C103.541 99.6238 104.877 97.1246 106.839 95.1629C108.8 93.2013 111.299 91.8654 114.02 91.3242C116.741 90.783 119.561 91.0608 122.124 92.1224C124.687 93.184 126.878 94.9818 128.419 97.2884C129.961 99.5951 130.783 102.307 130.783 105.081C130.779 108.8 129.3 112.365 126.67 114.995C124.041 117.624 120.476 119.103 116.757 119.107ZM116.757 94.9446C114.752 94.9446 112.793 95.539 111.127 96.6525C109.46 97.766 108.161 99.3487 107.394 101.2C106.627 103.052 106.426 105.09 106.817 107.056C107.208 109.021 108.173 110.827 109.59 112.245C111.007 113.662 112.813 114.627 114.778 115.019C116.744 115.41 118.782 115.209 120.634 114.443C122.486 113.676 124.069 112.377 125.182 110.711C126.296 109.045 126.891 107.085 126.891 105.081C126.888 102.394 125.819 99.8182 123.92 97.9183C122.02 96.0184 119.444 94.9497 116.757 94.9466V94.9446Z" fill="black"/>
<path d="M126.817 79.7838H105.081C104.565 79.7838 104.07 79.5788 103.705 79.2138C103.34 78.8489 103.135 78.3539 103.135 77.8379V56.1016C103.135 55.5855 103.34 55.0906 103.705 54.7256C104.07 54.3607 104.565 54.1557 105.081 54.1557H118.528C118.827 54.1558 119.122 54.2251 119.391 54.3581C119.659 54.491 119.893 54.6842 120.075 54.9224L128.364 65.7905C128.623 66.1293 128.763 66.5436 128.763 66.9697V77.8379C128.763 78.3539 128.558 78.8489 128.193 79.2138C127.828 79.5788 127.333 79.7838 126.817 79.7838ZM107.027 75.8919H124.871V67.6275L117.564 58.0476H107.027V75.8919Z" fill="black"/>
</svg>
