<svg viewBox="0 0 130 130" fill="none" xmlns="http://www.w3.org/2000/svg">
<g clip-path="url(#clip0)">
<path d="M59.9865 88.173C60.9792 87.1801 60.9792 85.5734 59.9865 84.5806C58.9927 83.5907 57.3828 83.5907 56.3881 84.5806C55.3963 85.5734 55.3963 87.1801 56.3881 88.173C57.3828 89.1628 58.9927 89.1628 59.9865 88.173Z" fill="black"/>
<path d="M47.9421 27.9218C47.9421 43.3178 60.4923 55.8445 75.9185 55.8445C91.3446 55.8445 103.895 43.3178 103.895 27.9218C103.895 12.5257 91.3446 0 75.9185 0C60.4923 0 47.9421 12.5257 47.9421 27.9218ZM98.8088 27.9218C98.8088 40.5189 88.5402 50.7674 75.9185 50.7674C63.2967 50.7674 53.0282 40.5189 53.0282 27.9218C53.0282 15.3256 63.2967 5.07714 75.9185 5.07714C88.5402 5.07714 98.8088 15.3256 98.8088 27.9218Z" fill="black"/>
<path d="M29.4223 129.249C30.4081 130.241 32.013 130.252 33.0118 129.27L45.3424 117.146C47.4372 115.055 48.0742 111.96 47.153 109.269L49.8054 106.716C51.2334 105.339 53.1136 104.581 55.1011 104.581H88.9119C94.9102 104.581 100.58 102.282 104.878 98.107C105.055 97.9354 103.535 99.7217 127.944 70.6058C131.564 66.331 131.023 59.912 126.735 56.2948C122.475 52.7114 116.093 53.2261 112.463 57.4275L97.4553 72.8225C95.5602 70.4947 92.6703 69.0437 89.5479 69.0437H61.1869C57.1513 67.3586 52.8691 66.5056 48.4509 66.5056C36.2037 66.5056 25.5099 72.1511 19.7709 82.7358C17.3531 82.2785 14.8031 83.0085 12.9686 84.8394L0.869535 96.9506C-0.118265 97.9394 -0.120252 99.5392 0.86556 100.531L29.4223 129.249ZM48.4499 71.5818C52.3454 71.5818 56.1118 72.3643 59.6466 73.9076C59.9686 74.0484 60.3154 74.1208 60.6662 74.1208H89.5479C92.3056 74.1208 94.635 76.3653 94.635 79.197C94.635 81.9969 92.3533 84.2741 89.5479 84.2741H68.7971C67.393 84.2741 66.2541 85.4107 66.2541 86.8122C66.2541 88.2146 67.393 89.3502 68.7971 89.3502H89.5479C95.1577 89.3502 99.721 84.7958 99.721 79.197C99.721 78.7506 99.6892 78.3083 99.6316 77.8699C114.149 62.9757 116.197 60.883 116.284 60.7788C118.097 58.6434 121.314 58.3727 123.455 60.1738C125.598 61.9819 125.869 65.1914 124.051 67.3387L101.24 94.5563C97.9084 97.748 93.5349 99.5045 88.9119 99.5045H55.1011C51.7879 99.5045 48.6516 100.769 46.2725 103.063L44.1111 105.145L24.1862 85.26C28.8429 76.5409 37.5811 71.5818 48.4499 71.5818ZM16.568 88.4268C17.4067 87.5898 18.6946 87.439 19.7172 88.0698C20.1575 88.3376 18.8934 87.1891 41.746 109.965C42.7626 110.98 42.7079 112.597 41.7599 113.543L31.2479 123.879L6.25771 98.7468L16.568 88.4268Z" fill="black"/>
<path d="M72.8666 12.6924V15.6668C69.9062 16.7142 67.7795 19.5359 67.7795 22.8456C67.7795 27.044 71.2021 30.4608 75.4097 30.4608C76.8119 30.4608 77.9527 31.5994 77.9527 32.9989C77.9527 34.3984 76.8119 35.537 75.4097 35.537C74.3235 35.537 73.1498 34.8556 72.1074 33.6168C71.2031 32.5437 69.5991 32.4058 68.5239 33.3074C67.4486 34.2099 67.3095 35.8107 68.2138 36.8839C69.5733 38.4976 71.1723 39.6223 72.8666 40.1896V43.1522C72.8666 44.5546 74.0055 45.6903 75.4097 45.6903C76.8138 45.6903 77.9527 44.5546 77.9527 43.1522V40.1777C80.9131 39.1294 83.0398 36.3076 83.0398 32.9989C83.0398 28.7995 79.6173 25.3837 75.4097 25.3837C74.0075 25.3837 72.8666 24.2451 72.8666 22.8456C72.8666 21.4462 74.0075 20.3066 75.4097 20.3066C76.311 20.3066 77.262 20.7658 78.1604 21.6336C79.1701 22.6086 80.78 22.5818 81.7568 21.5751C82.7337 20.5674 82.7069 18.9607 81.6982 17.9857C80.4073 16.739 79.1154 16.0338 77.9527 15.649V12.6924C77.9527 11.2899 76.8138 10.1533 75.4097 10.1533C74.0055 10.1533 72.8666 11.2899 72.8666 12.6924Z" fill="black"/>
</g>
<defs>
<clipPath id="clip0">
<rect width="130" height="130" fill="white"/>
</clipPath>
</defs>
</svg>
