<svg width="51" height="51" viewBox="0 0 51 51" fill="none" xmlns="http://www.w3.org/2000/svg">
<g clip-path="url(#clip0)">
<path d="M50.8486 28.555C50.7221 28.302 50.4058 28.1755 50.1529 28.1123C48.6982 28.1123 36.1758 27.6063 36.1758 13.0601C36.1758 12.6174 35.7964 12.2379 35.3537 12.2379C34.911 12.2379 34.5315 12.6174 34.5315 13.0601C34.5315 27.6063 22.0091 28.1123 20.6177 28.1123C20.428 28.1123 20.2382 28.1755 20.1118 28.302C19.9853 28.3653 19.922 28.4918 19.8588 28.555C19.7323 28.808 19.7323 29.1242 19.8588 29.3772C19.9853 29.6302 20.3015 29.8199 20.6177 29.8199C20.6177 29.8199 20.6177 29.8199 20.681 29.8199C22.1356 29.8199 34.5947 30.3259 34.5947 44.8721C34.5947 45.3148 34.9742 45.6943 35.4169 45.6943C35.8596 45.6943 36.2391 45.3148 36.2391 44.8721C36.2391 30.3891 48.6982 29.8199 50.1529 29.8199C50.4691 29.8199 50.7221 29.6302 50.9118 29.3772C51.0383 29.1242 51.0383 28.808 50.8486 28.555ZM35.3537 38.6741C33.5196 32.6659 29.0292 30.0729 25.4875 28.9345C29.0292 27.7961 33.5196 25.2031 35.3537 19.1948C37.1878 25.2031 41.6781 27.7961 45.2198 28.9345C41.6781 30.0729 37.1878 32.6659 35.3537 38.6741Z" fill="black"/>
<path d="M24.9183 12.1115C25.361 12.1115 25.7405 11.732 25.7405 11.226C25.7405 10.7833 25.361 10.4039 24.9183 10.4039C24.1594 10.4039 17.329 10.1509 17.329 2.18207C17.329 1.73936 16.9495 1.35989 16.5068 1.35989C16.0641 1.35989 15.6846 1.73936 15.6846 2.18207C15.6846 10.1509 8.85424 10.4039 8.09531 10.4039C8.03206 10.4039 8.03206 10.4039 8.03206 10.4039C7.58935 10.4671 7.27313 10.7833 7.27313 11.226C7.27313 11.6687 7.6526 12.0482 8.09531 12.0482C8.91749 12.0482 15.6846 12.3012 15.6846 20.27C15.6846 20.7127 16.0641 21.0922 16.5068 21.0922C16.8863 21.1554 17.2657 20.7759 17.2657 20.3332C17.2657 12.3644 24.0961 12.1115 24.8551 12.1115H24.9183ZM16.4436 15.7164C15.4317 13.3131 13.5976 11.985 11.89 11.226C13.7241 10.4671 15.4317 9.01247 16.4436 6.73567C17.4555 9.13896 19.2896 10.4671 20.9972 11.226C19.1631 11.985 17.4555 13.4396 16.4436 15.7164Z" fill="black"/>
<path d="M17.6452 38.9271C16.8863 38.9271 10.0559 38.6741 10.0559 30.7053C10.0559 30.2626 9.6764 29.8831 9.23369 29.8831C8.79098 29.8831 8.41151 30.2626 8.41151 30.7053C8.41151 38.6741 1.58111 38.9271 0.822178 38.9271C0.758933 38.9271 0.758933 38.9271 0.758933 38.9271C0.316222 38.9903 0 39.3066 0 39.7493C0 40.192 0.379467 40.5714 0.822178 40.5714C1.64436 40.5714 8.41151 40.8244 8.41151 48.7932C8.41151 49.2359 8.79098 49.6154 9.23369 49.6154C9.61316 49.7419 9.99262 49.3624 9.99262 48.8565C9.99262 40.8877 16.823 40.6347 17.582 40.6347H17.6452C18.0879 40.6347 18.4674 40.2552 18.4674 39.7493C18.4674 39.3066 18.0879 38.9271 17.6452 38.9271ZM9.17045 44.3029C8.09529 41.8996 6.32445 40.5714 4.61685 39.8125C6.45093 39.0536 8.15854 37.599 9.17045 35.3222C10.1824 37.7254 12.0164 39.0536 13.724 39.8125C11.89 40.5714 10.1824 42.0261 9.17045 44.3029Z" fill="black"/>
</g>
<defs>
<clipPath id="clip0">
<rect width="51" height="51" fill="white"/>
</clipPath>
</defs>
</svg>
