<svg viewBox="0 0 130 130" fill="none" xmlns="http://www.w3.org/2000/svg">
<g clip-path="url(#clip0)">
<path d="M110.5 0H88.8333C87.6368 0 86.6666 0.970133 86.6666 2.16667V8.66667C86.6666 9.69604 87.3913 10.5837 88.3995 10.79L90.4731 11.2057C92.2399 11.5644 93.9019 12.3208 95.3333 13.4158V13.8495C95.3375 18.0062 93.2597 21.8888 89.7971 24.1909L92.2028 27.7964C95.5946 25.5356 98.0437 22.1142 99.0879 18.1744C99.3556 18.769 99.5735 19.3857 99.7386 20.0173C99.9755 20.9832 100.84 21.6624 101.833 21.6667H106.167V27.8482L100.299 47.4043L104.451 48.6506L109.946 30.3333H119.524L123.5 52.1947V101.833C123.5 105.423 120.59 108.333 117 108.333H111.403V112.667H117C122.98 112.659 127.826 107.814 127.833 101.833V52C127.833 51.8699 127.821 51.7397 127.796 51.6117L123.5 27.9784V21.6667H127.833C129.03 21.6667 130 20.6965 130 19.5C129.988 8.73543 121.265 0.0116374 110.5 0ZM119.167 26H110.5V21.6667H119.167V26ZM121.333 17.3333H103.43C101.469 12.0108 96.8906 8.08374 91.3311 6.95703L91 6.89038V4.33333H110.5C118.036 4.34285 124.426 9.87589 125.513 17.3333H121.333Z" fill="black"/>
<path d="M10.8333 112.667H26V108.333H10.8333C7.24374 108.333 4.33334 105.423 4.33334 101.833V70.8092C4.33334 68.5938 4.64225 66.3901 5.25163 64.2616L8.58415 52.5956C8.70475 52.1756 8.69418 51.7292 8.55453 51.3155L4.74911 39.9014C3.69222 36.7212 4.68986 33.2194 7.26489 31.0739L15.9506 23.8333H36.0494L42.3325 29.0723L45.1075 25.744L39 20.65V15.1667C39 14.5922 38.7715 14.041 38.3652 13.6348L34.6667 9.9362V2.16667C34.6667 0.970133 33.6965 0 32.5 0H19.5C18.3035 0 17.3333 0.970133 17.3333 2.16667V9.9362L13.6348 13.6348C13.2285 14.041 13 14.5922 13 15.1667V20.65L4.48885 27.7445C0.545901 31.0326 -0.977537 36.4027 0.649579 41.2725L4.24024 52.0497L1.08334 63.0692C0.363935 65.5861 -0.00105565 68.1908 2.29326e-06 70.8092V101.833C0.00740791 107.814 4.85279 112.659 10.8333 112.667ZM21.6667 4.33333H30.3333V8.66667H21.6667V4.33333ZM17.3333 16.0638L20.3971 13H31.6029L34.6667 16.0638V19.5H17.3333V16.0638Z" fill="black"/>
<path d="M39 36.8333C39 31.9731 33.2882 28.1667 26 28.1667C18.7118 28.1667 13 31.9731 13 36.8333C13 41.6935 18.7118 45.5 26 45.5C33.2882 45.5 39 41.6935 39 36.8333ZM17.3333 36.8333C17.3333 34.7883 21.0404 32.5 26 32.5C30.9596 32.5 34.6667 34.7883 34.6667 36.8333C34.6667 38.8783 30.9596 41.1667 26 41.1667C21.0404 41.1667 17.3333 38.8783 17.3333 36.8333Z" fill="black"/>
<path d="M23.6164 71.8639L25.0721 67.7845L11.5612 62.9592C10.8978 62.7222 10.1604 62.8228 9.58492 63.229C9.0094 63.6353 8.66663 64.2954 8.66663 65V91C8.67403 96.9806 13.5194 101.826 19.5 101.833H23.8333V97.5H19.5C15.9104 97.5 13 94.5896 13 91V68.0744L23.6164 71.8639Z" fill="black"/>
<path d="M81.9471 70.2104C87.9509 78.1322 89.8901 88.4123 87.1839 97.9771C86.1482 101.346 88.0186 104.919 91.3765 105.989C94.7344 107.059 98.3272 105.224 99.4306 101.877C104.291 88.1129 101.755 72.8193 92.7138 61.3596L91.8473 60.253C89.4902 57.2379 85.14 56.6941 82.1132 59.0353C79.0854 61.3776 78.5194 65.7247 80.8447 68.7631L81.9471 70.2104ZM83.8112 63.9378C84.0386 62.955 84.8109 62.1901 85.7969 61.9711C86.7819 61.7532 87.8049 62.1192 88.428 62.9137L89.2945 64.0203C97.4216 74.3173 99.7015 88.0621 95.3332 100.432C95.0434 101.127 94.4128 101.621 93.668 101.737C92.9243 101.853 92.1732 101.575 91.6844 101.002C91.2887 100.477 91.1618 99.7968 91.3448 99.1663C94.4213 88.2874 92.2155 76.5951 85.3865 67.5846L84.2703 66.1204C83.7996 65.4983 83.6303 64.6974 83.8112 63.9378Z" fill="black"/>
<path d="M39.3639 129.036C39.766 129.638 40.442 130 41.1667 130H93.1667C93.8247 130 94.4478 129.702 94.8583 129.188L100.275 122.415C109.694 110.636 114.019 95.5851 112.287 80.6047C110.556 65.6231 102.912 51.9545 91.0561 42.6362L82.3333 35.7807V28.1667C82.3333 26.9701 81.3632 26 80.1667 26H78V17.3333C78 14.9403 76.0597 13 73.6667 13H56.3333C53.9403 13 52 14.9403 52 17.3333V26H49.8333C48.6368 26 47.6667 26.9701 47.6667 28.1667V36.0314L44.7764 39.4052C23.1848 64.7313 20.9769 101.295 39.3639 129.036ZM56.3333 17.3333H73.6667V26H56.3333V17.3333ZM48.0655 42.2236L51.4774 38.2436C51.8149 37.8511 52 37.3507 52 36.8333V30.3333H78V34.6667H56.3333V39H79.4166L88.3805 46.0417C99.3292 54.647 106.387 67.2682 107.985 81.1019C109.584 94.9345 105.59 108.833 96.8938 119.708L92.1267 125.667H42.3368C25.6847 99.6201 28.0101 65.7501 48.0655 42.2236Z" fill="black"/>
<path d="M61.75 112.667C70.1099 112.672 77.9133 108.477 82.5196 101.502C82.8242 101.043 82.9427 100.487 82.8507 99.9438C80.2249 84.3445 74.3279 72.0977 65.3164 63.5443C64.9619 63.2068 64.5039 62.9984 64.0161 62.955C63.2671 62.8788 62.517 62.8333 61.75 62.8333C47.9894 62.8333 36.8334 73.9893 36.8334 87.75C36.8334 101.511 47.9894 112.667 61.75 112.667ZM61.75 67.1667C62.1288 67.1667 62.5065 67.1815 62.8789 67.2058C70.7267 74.9277 75.9529 85.8848 78.4296 99.801C72.7346 107.687 62.297 110.51 53.4039 106.569C44.5109 102.628 39.5904 93.0006 41.6058 83.4844C43.6211 73.9692 52.0233 67.1635 61.75 67.1667Z" fill="black"/>
</g>
<defs>
<clipPath id="clip0">
<rect width="130" height="130" fill="white"/>
</clipPath>
</defs>
</svg>
