<svg viewBox="0 0 130 130" fill="none" xmlns="http://www.w3.org/2000/svg">
<g clip-path="url(#clip0)">
<path d="M119.167 108.333H113.751L113.768 21.6694C113.771 15.8823 111.517 10.4394 107.426 6.34766C103.335 2.25342 97.8915 0 92.1045 0C80.1577 0 70.4405 9.71725 70.4405 21.664V40.6011C70.4405 49.0471 66.1228 56.4957 59.5834 60.8768V53.6677C62.7291 52.5462 65 49.5678 65 46.0416C65 41.5611 61.3554 37.9166 56.875 37.9166H53.8926C52.6343 31.7431 47.1641 27.0832 40.625 27.0832H24.375C17.8359 27.0832 12.3657 31.7431 11.1074 37.9166H8.125C3.64457 37.9166 0 41.5611 0 46.0416C0 49.5678 2.27094 52.5459 5.41658 53.6677V108.832C2.27094 109.954 0 112.932 0 116.458C0 120.019 2.31766 123.019 5.5118 124.114C5.49682 124.277 5.41658 124.417 5.41658 124.583C5.41658 127.569 7.84723 130 10.8332 130C13.8194 130 16.25 127.569 16.25 124.583H48.75C48.75 127.569 51.1806 130 54.1666 130C57.1525 130 59.5832 127.569 59.5832 124.583C59.5832 124.417 59.5029 124.277 59.4879 124.114C62.6823 123.019 65 120.019 65 116.458C65 112.932 62.7291 109.954 59.5834 108.832V78.8813C75.3487 73.2852 86.6905 58.2606 86.6905 40.6014V21.6666C86.6905 18.6806 89.1211 16.25 92.107 16.25C93.5538 16.25 94.9132 16.8134 95.9367 17.8369C96.9576 18.8604 97.5211 20.2198 97.5211 21.6666L97.5005 108.333H92.0832C86.1085 108.333 81.2497 113.192 81.2497 119.167V121.875C81.2497 123.372 82.4611 124.583 83.9582 124.583H86.6666V127.292C86.6666 128.789 87.878 130 89.375 130H121.875C123.372 130 124.583 128.789 124.583 127.292V124.583H127.292C128.789 124.583 130 123.372 130 121.875V119.167C130 113.192 125.142 108.333 119.167 108.333ZM24.375 32.5H40.625C44.1512 32.5 47.1293 34.7709 48.2511 37.9166H16.7489C17.8707 34.7709 20.8488 32.5 24.375 32.5ZM8.125 43.3334H56.875C58.3692 43.3334 59.5834 44.5473 59.5834 46.0418C59.5834 47.5361 58.3695 48.7503 56.875 48.7503H8.125C6.63076 48.7503 5.41658 47.5363 5.41658 46.0418C5.41658 44.5473 6.63076 43.3334 8.125 43.3334ZM46.0416 81.25C48.8236 81.25 51.5402 80.9661 54.1666 80.4312V108.333H10.8334V54.1666H54.1668V63.504C51.6125 64.4135 48.9046 65 46.0418 65C41.5614 65 37.9168 68.6446 37.9168 73.125C37.9168 77.6054 41.5614 81.25 46.0416 81.25ZM56.875 119.167H8.125C6.63076 119.167 5.41658 117.953 5.41658 116.458C5.41658 114.964 6.63076 113.75 8.125 113.75H56.875C58.3692 113.75 59.5834 114.964 59.5834 116.458C59.5834 117.953 58.3692 119.167 56.875 119.167ZM92.107 10.8334C86.1324 10.8334 81.2736 15.6919 81.2736 21.6668V40.6014C81.2736 60.0278 65.4679 75.8334 46.0416 75.8334C44.5473 75.8334 43.3332 74.6195 43.3332 73.125C43.3332 71.6305 44.5471 70.4166 46.0416 70.4166C62.482 70.4166 75.857 57.0416 75.857 40.6011V21.664C75.857 12.706 83.1462 5.41658 92.1045 5.41658C96.4448 5.41658 100.526 7.10658 103.594 10.1773C106.664 13.2453 108.352 17.3291 108.352 21.6691L108.334 108.333H102.918L102.938 21.6691C102.941 18.7756 101.814 16.054 99.7669 14.007C97.7196 11.96 95.0005 10.8334 92.107 10.8334ZM86.6666 119.167C86.6666 116.181 89.0972 113.75 92.0832 113.75H119.167C122.153 113.75 124.583 116.181 124.583 119.167H86.6666Z" fill="black"/>
<path d="M24.375 59.5834H18.9584C17.4614 59.5834 16.25 60.7948 16.25 62.2918C16.25 63.7886 17.4614 65 18.9584 65H24.375C25.872 65 27.0834 63.7886 27.0834 62.2916C27.0834 60.7948 25.872 59.5834 24.375 59.5834Z" fill="black"/>
<path d="M24.375 70.4166H18.9584C17.4614 70.4166 16.25 71.628 16.25 73.125C16.25 74.622 17.4614 75.8334 18.9584 75.8334H24.375C25.872 75.8334 27.0834 74.622 27.0834 73.125C27.0834 71.628 25.872 70.4166 24.375 70.4166Z" fill="black"/>
</g>
<defs>
<clipPath id="clip0">
<rect width="130" height="130" fill="white"/>
</clipPath>
</defs>
</svg>
