<svg width="110" height="130" viewBox="0 0 110 130" fill="none" xmlns="http://www.w3.org/2000/svg">
<path d="M44.1673 43.3387C42.9708 43.3387 42.0007 44.3088 42.0007 45.5053V47.8668C42.0007 49.0633 42.9708 50.0333 44.1673 50.0333C45.3637 50.0333 46.3338 49.0633 46.3338 47.8668V45.5053C46.3338 44.3088 45.3637 43.3387 44.1673 43.3387Z" fill="black"/>
<path d="M65.8327 50.0333C67.0291 50.0333 67.9992 49.0633 67.9992 47.8668V45.5053C67.9992 44.3088 67.0291 43.3387 65.8327 43.3387C64.6362 43.3387 63.6661 44.3088 63.6661 45.5053V47.8668C63.6661 49.0633 64.6362 50.0333 65.8327 50.0333Z" fill="black"/>
<path d="M55.7084 55.7746C56.5939 56.58 57.9645 56.5151 58.7697 55.6295C59.5748 54.7439 59.5101 53.3733 58.6245 52.5682L57.1664 51.2423V47.6718C57.1664 46.4753 56.1964 45.5053 54.9999 45.5053C53.8034 45.5053 52.8334 46.4753 52.8334 47.6718V52.1999C52.8331 52.8103 53.0904 53.3923 53.5418 53.8031L55.7084 55.7746Z" fill="black"/>
<path d="M63.2523 59.6029C62.5696 58.6556 61.2586 58.4197 60.2885 59.0699C57.1395 61.1937 53.0258 61.2305 49.8393 59.1631L48.5004 60.866L47.3088 62.675C49.5704 64.1919 52.2315 65.0024 54.9545 65.0041C57.7621 64.9951 60.5033 64.151 62.8299 62.5797C63.7485 61.8626 63.9351 60.5475 63.2523 59.6029Z" fill="black"/>
<path d="M87.4979 82.3363H67.9991V72.3183C74.0183 68.8264 78.3906 63.0723 80.1426 56.3379H83.1649C86.7545 56.3379 89.6645 53.428 89.6645 49.8383V47.6718C89.6645 44.0821 86.7545 41.1722 83.1649 41.1722H80.9983V33.2275C80.9859 33.1241 80.965 33.022 80.9355 32.9221C80.9707 32.7858 80.9918 32.6466 80.9983 32.5061V30.3396C80.9829 15.9874 69.3521 4.35662 55 4.34118H52.8334C50.6707 4.34687 48.5188 4.64883 46.4378 5.23813C42.7563 -0.207993 35.3568 -1.63872 29.9107 2.04276C24.4646 5.72424 23.0339 13.1238 26.7153 18.5699C27.5649 19.8267 28.6468 20.9095 29.9029 21.7601C29.3109 23.8465 29.0075 26.0043 29.0016 28.173V41.1722H26.835C23.2454 41.1722 20.3355 44.0821 20.3355 47.6718V49.8383C20.3355 53.428 23.2454 56.3379 26.835 56.3379H29.8682C31.6174 63.0704 35.9857 68.8242 42.0008 72.3183V82.3363H22.502C10.5419 82.3493 0.84994 92.0416 0.83667 104.002V127.833C0.83667 129.03 1.80673 130 3.0032 130H106.997C108.193 130 109.163 129.03 109.163 127.833V104.002C109.15 92.0418 99.458 82.3496 87.4979 82.3363ZM80.9983 49.8383V45.5053H83.1649C84.3613 45.5053 85.3314 46.4753 85.3314 47.6718V49.8383C85.3314 51.0348 84.3613 52.0049 83.1649 52.0049H80.9983V49.8383ZM29.0016 49.8383V52.0049H26.835C25.6386 52.0049 24.6685 51.0348 24.6685 49.8383V47.6718C24.6685 46.4753 25.6386 45.5053 26.835 45.5053H29.0016V49.8383ZM20.3355 125.667H5.16973V121.334H20.3355V125.667ZM22.502 106.168V109.99L22.2723 110.447C21.2495 112.501 20.5981 114.72 20.3485 117.001H5.16973V104.002C5.18057 94.4337 12.934 86.6802 22.502 86.6694V106.168ZM80.9983 86.6694H85.3314V104.002H80.9983V86.6694ZM52.8334 8.67424H55C66.96 8.68751 76.6523 18.3795 76.6653 30.3396V31.0783L73.8964 32.2656C67.4534 35.0317 60.1187 34.8162 53.8495 31.6763L42.9692 26.234C42.6681 26.0848 42.3368 26.007 42.0008 26.0065C41.4261 26.0065 40.8753 26.2351 40.469 26.6413L33.3346 33.7757V28.173C33.3479 17.4097 42.0701 8.68751 52.8334 8.67424ZM29.0016 11.924C29.01 7.73614 32.412 4.34795 36.5996 4.35662C38.7423 4.36095 40.7829 5.27144 42.2174 6.86302C37.5935 9.17986 33.844 12.9317 31.5299 17.557C29.928 16.1217 29.0094 14.0749 29.0016 11.924ZM33.3411 49.8383H33.3346V39.9026L42.4341 30.8032L51.9191 35.5457C59.3281 39.2567 67.9964 39.511 75.6102 36.2412L76.6718 35.784V49.8383C76.6718 61.8038 66.9719 71.5037 55.0065 71.5037C43.041 71.5037 33.3411 61.8038 33.3411 49.8383ZM55 88.3874L46.3338 82.5378V74.3201C51.9343 76.3421 58.0656 76.3421 63.6661 74.3201V82.5378L55 88.3874ZM63.6661 88.3289V93.6759L59.2117 91.0024L63.6661 88.3289ZM50.7882 91.0024L46.3338 93.6759V88.3289L50.7882 91.0024ZM35.5012 86.6694H42.0008V97.502C42.001 98.6985 42.9711 99.6683 44.1678 99.668C44.5608 99.668 44.9464 99.5611 45.2831 99.3585L55 93.5283L64.7168 99.3585C65.7424 99.9746 67.0735 99.6428 67.6899 98.617C67.8922 98.2801 67.9991 97.8947 67.9991 97.5018V86.6691H76.6653V104.001H35.5012V86.6694ZM26.835 86.6694H31.1681V104.002H26.835V86.6694ZM63.6661 125.667H46.3338V117.001H63.6661V125.667ZM86.1049 125.667H67.9991V114.834C67.9991 113.638 67.0291 112.668 65.8326 112.668H44.1673C42.9708 112.668 42.0008 113.638 42.0008 114.834V125.667H26.0291C25.3244 124.19 24.8651 122.609 24.6685 120.985V119.167C24.6552 119.02 24.626 118.875 24.5819 118.734C24.6341 116.529 25.169 114.362 26.1483 112.386L26.6054 111.472C26.7565 111.171 26.835 110.838 26.835 110.501V108.335H85.3877L85.3314 110.445C85.3254 110.785 85.3996 111.122 85.548 111.428L85.9814 112.343C87.9445 116.558 87.9895 121.416 86.1049 125.667ZM104.83 125.667H91.831V121.334H104.83V125.667ZM104.83 117.001H91.7032C91.4689 114.744 90.8558 112.542 89.8898 110.488L89.6731 110.042L89.7728 106.224C89.7693 106.003 89.7313 105.784 89.6601 105.575V86.8189C98.3189 87.9154 104.815 95.2735 104.83 104.002V117.001Z" fill="black"/>
</svg>
